<svg width="290" height="322" viewBox="0 0 290 322" fill="none" xmlns="http://www.w3.org/2000/svg">
<g filter="url(#filter0_f_1_15)">
<circle cx="141" cy="129" r="125" fill="#0EF1BB" fill-opacity="0.85"/>
</g>
<g filter="url(#filter1_f_1_15)">
<circle cx="153" cy="149" r="125" fill="#C6EE54" fill-opacity="0.85"/>
</g>
<g filter="url(#filter2_f_1_15)">
<circle cx="132" cy="147" r="125" fill="#EB27B4" fill-opacity="0.85"/>
</g>
<g filter="url(#filter3_f_1_15)">
<circle cx="143" cy="141" r="125" fill="#4D657A" fill-opacity="0.95"/>
</g>
<path d="M9.24551 295.944H15.4375V302.76H9.48551V321H0.365509V295.272C0.365509 292.104 1.30951 289.592 3.19751 287.736C5.11751 285.88 7.78951 284.952 11.2135 284.952C12.3655 284.952 13.4855 285.064 14.5735 285.288C15.6615 285.512 16.5575 285.848 17.2615 286.296L15.0055 292.728C14.1095 292.216 13.1975 291.96 12.2695 291.96C11.3095 291.96 10.5575 292.248 10.0135 292.824C9.50151 293.4 9.24551 294.248 9.24551 295.368V295.944Z" fill="#55637C"/>
<path d="M71.0883 295.416V321.432H62.4003V318.84C60.7043 320.856 58.1443 321.864 54.7203 321.864C52.3523 321.864 50.1923 321.32 48.2403 320.232C46.3203 319.112 44.7843 317.528 43.6323 315.48C42.5123 313.432 41.9523 311.064 41.9523 308.376C41.9523 305.688 42.5123 303.336 43.6323 301.32C44.7843 299.272 46.3203 297.704 48.2403 296.616C50.1923 295.528 52.3523 294.984 54.7203 294.984C57.7923 294.984 60.2083 295.88 61.9683 297.672V295.416H71.0883ZM56.6403 314.616C58.2403 314.616 59.5523 314.072 60.5763 312.984C61.6003 311.864 62.1123 310.328 62.1123 308.376C62.1123 306.456 61.6003 304.952 60.5763 303.864C59.5523 302.776 58.2403 302.232 56.6403 302.232C55.0403 302.232 53.7283 302.776 52.7043 303.864C51.6803 304.952 51.1683 306.456 51.1683 308.376C51.1683 310.328 51.6803 311.864 52.7043 312.984C53.7283 314.072 55.0403 314.616 56.6403 314.616Z" fill="#55637C"/>
<path d="M141.411 314.472C142.659 314.472 143.731 314.296 144.627 313.944C145.555 313.592 146.483 313.016 147.411 312.216L152.163 317.208C149.699 320.024 146.019 321.432 141.123 321.432C138.083 321.432 135.411 320.856 133.107 319.704C130.803 318.552 129.011 316.952 127.731 314.904C126.483 312.856 125.859 310.536 125.859 307.944C125.859 305.384 126.483 303.096 127.731 301.08C128.979 299.032 130.691 297.432 132.867 296.28C135.075 295.128 137.539 294.552 140.259 294.552C142.787 294.552 145.091 295.08 147.171 296.136C149.283 297.16 150.963 298.68 152.211 300.696C153.459 302.68 154.083 305.048 154.083 307.8L135.507 311.352C136.499 313.432 138.467 314.472 141.411 314.472ZM140.307 301.032C138.739 301.032 137.459 301.528 136.467 302.52C135.475 303.48 134.915 304.872 134.787 306.696L145.347 304.632C145.027 303.544 144.419 302.68 143.523 302.04C142.627 301.368 141.555 301.032 140.307 301.032Z" fill="#55637C"/>
<path d="M219.484 321.432C216.7 321.432 214.188 320.856 211.948 319.704C209.708 318.552 207.948 316.952 206.668 314.904C205.42 312.856 204.796 310.536 204.796 307.944C204.796 305.384 205.42 303.08 206.668 301.032C207.948 298.984 209.692 297.4 211.9 296.28C214.14 295.128 216.668 294.552 219.484 294.552C222.3 294.552 224.828 295.128 227.068 296.28C229.308 297.4 231.052 298.984 232.3 301.032C233.548 303.048 234.172 305.352 234.172 307.944C234.172 310.536 233.548 312.856 232.3 314.904C231.052 316.952 229.308 318.552 227.068 319.704C224.828 320.856 222.3 321.432 219.484 321.432ZM219.484 314.184C221.084 314.184 222.396 313.64 223.42 312.552C224.444 311.432 224.956 309.896 224.956 307.944C224.956 306.024 224.444 304.52 223.42 303.432C222.396 302.344 221.084 301.8 219.484 301.8C217.884 301.8 216.572 302.344 215.548 303.432C214.524 304.52 214.012 306.024 214.012 307.944C214.012 309.896 214.524 311.432 215.548 312.552C216.572 313.64 217.884 314.184 219.484 314.184Z" fill="#55637C"/>
<path d="M271.392 311.88L268.704 314.616V321H259.584V285.384H268.704V304.056L278.016 294.984H288.816L278.016 306.12L289.728 321H278.688L271.392 311.88Z" fill="#55637C"/>
<path d="M71.0883 295.416V321.432H62.4003V318.84C60.7043 320.856 58.1443 321.864 54.7203 321.864C52.3523 321.864 50.1923 321.32 48.2403 320.232C46.3203 319.112 44.7843 317.528 43.6323 315.48C42.5123 313.432 41.9523 311.064 41.9523 308.376C41.9523 305.688 42.5123 303.336 43.6323 301.32C44.7843 299.272 46.3203 297.704 48.2403 296.616C50.1923 295.528 52.3523 294.984 54.7203 294.984C57.7923 294.984 60.2083 295.88 61.9683 297.672V295.416H71.0883ZM56.6403 314.616C58.2403 314.616 59.5523 314.072 60.5763 312.984C61.6003 311.864 62.1123 310.328 62.1123 308.376C62.1123 306.456 61.6003 304.952 60.5763 303.864C59.5523 302.776 58.2403 302.232 56.6403 302.232C55.0403 302.232 53.7283 302.776 52.7043 303.864C51.6803 304.952 51.1683 306.456 51.1683 308.376C51.1683 310.328 51.6803 311.864 52.7043 312.984C53.7283 314.072 55.0403 314.616 56.6403 314.616Z" fill="#55637C"/>
<path d="M110.847 294.552C114.047 294.552 116.591 295.512 118.479 297.432C120.399 299.352 121.359 302.248 121.359 306.12V309H112.239V307.608C112.239 305.784 111.887 304.44 111.183 303.576C110.511 302.712 109.551 302.28 108.303 302.28C106.927 302.28 105.823 302.76 104.991 303.72C104.159 304.68 103.743 306.136 103.743 308.088V309H94.6233V307.608C94.6233 304.056 93.3113 302.28 90.6873 302.28C89.2793 302.28 88.1593 302.76 87.3273 303.72C86.4953 304.68 86.0793 306.136 86.0793 308.088V309H76.9593V294.984H85.6473V297.72C86.6073 296.664 87.7433 295.88 89.0553 295.368C90.3993 294.824 91.8553 294.552 93.4233 294.552C95.2473 294.552 96.8793 294.888 98.3193 295.56C99.7593 296.232 100.927 297.256 101.823 298.632C102.847 297.32 104.143 296.312 105.711 295.608C107.279 294.904 108.991 294.552 110.847 294.552Z" fill="#55637C"/>
<path d="M197.359 318.312C199.599 316.2 200.719 313.208 200.719 309.336V309H191.597C191.566 310.678 191.263 311.926 190.687 312.744C190.079 313.576 189.135 313.992 187.855 313.992C186.575 313.992 185.615 313.56 184.975 312.696C184.37 311.879 184.051 310.647 184.018 309H174.893C174.86 310.647 174.541 311.879 173.935 312.696C173.295 313.56 172.335 313.992 171.055 313.992C169.775 313.992 168.831 313.576 168.223 312.744C167.648 311.926 167.345 310.678 167.314 309H167.311H158.191V309.336C158.191 313.208 159.279 316.2 161.455 318.312C163.663 320.392 166.799 321.432 170.863 321.432C174.671 321.432 177.519 320.328 179.407 318.12C181.359 320.328 184.223 321.432 187.999 321.432C192.031 321.432 195.151 320.392 197.359 318.312Z" fill="#55637C"/>
<path d="M250.685 295.464C252.189 294.856 253.901 294.552 255.821 294.552V302.76C254.989 302.664 254.301 302.616 253.757 302.616C251.805 302.616 250.269 303.144 249.149 304.2C248.903 304.438 248.686 304.705 248.496 305L248 297.114C248.762 296.416 249.657 295.866 250.685 295.464Z" fill="#55637C"/>
<path d="M247.517 309.048V321H238.397V294.984H247.085V298.104L247.517 309.048Z" fill="#55637C"/>
<path d="M34.9191 295.464C36.4231 294.856 38.1351 294.552 40.0551 294.552V302.76C39.2231 302.664 38.5351 302.616 37.9911 302.616C36.0391 302.616 34.5031 303.144 33.3831 304.2C33.1377 304.438 32.92 304.705 32.73 305L32.2344 297.114C32.9968 296.416 33.8917 295.866 34.9191 295.464Z" fill="#55637C"/>
<path d="M31.7511 309.048V321H22.6311V294.984H31.3191V298.104L31.7511 309.048Z" fill="#55637C"/>
<ellipse cx="219.5" cy="308" rx="3.5" ry="4" fill="#CCEE6C"/>
<g filter="url(#filter4_d_1_15)">
<ellipse cx="56.5" cy="308.5" rx="3.5" ry="4.5" fill="#EC45BE"/>
</g>
<g filter="url(#filter5_i_1_15)">
<path d="M113.432 84.344H177.432V99.32H113.432V84.344ZM113.56 114.936H178.072V129.528H113.56V114.936ZM112.92 145.272H177.176V160.12H112.92V145.272ZM102.936 84.344H118.68V126.712C118.68 148.984 115.224 180.344 93.592 198.52C91.288 195.32 85.016 189.56 81.688 187.512C101.144 171 102.936 146.296 102.936 126.712V84.344ZM170.264 84.344H186.52V179.064C186.52 188.152 184.344 192.76 178.456 195.32C172.312 198.008 163.224 198.264 149.912 198.264C149.016 193.656 146.072 186.232 143.512 182.136C152.6 182.648 163.224 182.52 166.296 182.52C169.24 182.392 170.264 181.496 170.264 178.808V84.344Z" fill="white"/>
</g>
<path d="M140.25 302C138.181 302 136.457 303.479 136.078 305.437L143.698 303.764C142.926 302.696 141.669 302 140.25 302Z" fill="#30F1C3"/>
<defs>
<filter id="filter0_f_1_15" x="12" y="0" width="258" height="258" filterUnits="userSpaceOnUse" color-interpolation-filters="sRGB">
<feFlood flood-opacity="0" result="BackgroundImageFix"/>
<feBlend mode="normal" in="SourceGraphic" in2="BackgroundImageFix" result="shape"/>
<feGaussianBlur stdDeviation="2" result="effect1_foregroundBlur_1_15"/>
</filter>
<filter id="filter1_f_1_15" x="24" y="20" width="258" height="258" filterUnits="userSpaceOnUse" color-interpolation-filters="sRGB">
<feFlood flood-opacity="0" result="BackgroundImageFix"/>
<feBlend mode="normal" in="SourceGraphic" in2="BackgroundImageFix" result="shape"/>
<feGaussianBlur stdDeviation="2" result="effect1_foregroundBlur_1_15"/>
</filter>
<filter id="filter2_f_1_15" x="3" y="18" width="258" height="258" filterUnits="userSpaceOnUse" color-interpolation-filters="sRGB">
<feFlood flood-opacity="0" result="BackgroundImageFix"/>
<feBlend mode="normal" in="SourceGraphic" in2="BackgroundImageFix" result="shape"/>
<feGaussianBlur stdDeviation="2" result="effect1_foregroundBlur_1_15"/>
</filter>
<filter id="filter3_f_1_15" x="8" y="6" width="270" height="270" filterUnits="userSpaceOnUse" color-interpolation-filters="sRGB">
<feFlood flood-opacity="0" result="BackgroundImageFix"/>
<feBlend mode="normal" in="SourceGraphic" in2="BackgroundImageFix" result="shape"/>
<feGaussianBlur stdDeviation="5" result="effect1_foregroundBlur_1_15"/>
</filter>
<filter id="filter4_d_1_15" x="49" y="304" width="15" height="17" filterUnits="userSpaceOnUse" color-interpolation-filters="sRGB">
<feFlood flood-opacity="0" result="BackgroundImageFix"/>
<feColorMatrix in="SourceAlpha" type="matrix" values="0 0 0 0 0 0 0 0 0 0 0 0 0 0 0 0 0 0 127 0" result="hardAlpha"/>
<feOffset dy="4"/>
<feGaussianBlur stdDeviation="2"/>
<feComposite in2="hardAlpha" operator="out"/>
<feColorMatrix type="matrix" values="0 0 0 0 0 0 0 0 0 0 0 0 0 0 0 0 0 0 0.25 0"/>
<feBlend mode="normal" in2="BackgroundImageFix" result="effect1_dropShadow_1_15"/>
<feBlend mode="normal" in="SourceGraphic" in2="effect1_dropShadow_1_15" result="shape"/>
</filter>
<filter id="filter5_i_1_15" x="81.688" y="84.344" width="104.832" height="117.176" filterUnits="userSpaceOnUse" color-interpolation-filters="sRGB">
<feFlood flood-opacity="0" result="BackgroundImageFix"/>
<feBlend mode="normal" in="SourceGraphic" in2="BackgroundImageFix" result="shape"/>
<feColorMatrix in="SourceAlpha" type="matrix" values="0 0 0 0 0 0 0 0 0 0 0 0 0 0 0 0 0 0 127 0" result="hardAlpha"/>
<feOffset dy="3"/>
<feGaussianBlur stdDeviation="2"/>
<feComposite in2="hardAlpha" operator="arithmetic" k2="-1" k3="1"/>
<feColorMatrix type="matrix" values="0 0 0 0 0 0 0 0 0 0 0 0 0 0 0 0 0 0 0.25 0"/>
<feBlend mode="normal" in2="shape" result="effect1_innerShadow_1_15"/>
</filter>
</defs>
</svg>
